<?xml version="1.0" encoding="utf-8"?>
<!-- Generator: Adobe Illustrator 16.0.0, SVG Export Plug-In . SVG Version: 6.00 Build 0)  -->
<!DOCTYPE svg PUBLIC "-//W3C//DTD SVG 1.1//EN" "http://www.w3.org/Graphics/SVG/1.1/DTD/svg11.dtd">
<svg version="1.1" id="Layer_1" xmlns="http://www.w3.org/2000/svg" xmlns:xlink="http://www.w3.org/1999/xlink" x="0px" y="0px"
	 width="120px" height="120px" viewBox="0 0 120 120" enable-background="new 0 0 120 120" xml:space="preserve">
<ellipse fill="#ECECEC" cx="60.414" cy="59.865" rx="58.811" ry="57.687"/>
<g>
	<path fill="#A9A9A9" d="M54.757,77.274c-0.87,0-1.742-0.323-2.42-0.972L38.269,62.827c-1.396-1.337-1.444-3.553-0.107-4.949
		c1.338-1.396,3.553-1.443,4.949-0.107l14.068,13.475c1.396,1.338,1.443,3.553,0.107,4.949
		C56.599,76.913,55.679,77.274,54.757,77.274z"/>
	<path fill="#A9A9A9" d="M54.851,77.274c-0.914,0-1.828-0.356-2.514-1.065c-1.346-1.389-1.311-3.604,0.078-4.949l26.043-25.224
		c1.387-1.344,3.604-1.311,4.949,0.079c1.346,1.389,1.309,3.604-0.08,4.949L57.287,76.289
		C56.607,76.947,55.728,77.274,54.851,77.274z"/>
</g>
</svg>
